# xmcd
#
# Track frame offsets: 
#        150
#        15398
#        35592
#        56419
#        67590
#        85961
#        103606
#        121774
#        138693
#        156788
#        175545
#        191418
#        213987
#        230843
#        245440
#        255007
#
# Disc length: 3642 seconds
#
# Revision: 6
# Processed by: cddbd v1.5.2PL0 Copyright (c) Steve Scherf et al.
# Submitted via: ExactAudioCopy v0.99pb5
#
DISCID=c50e3810
DTITLE=Various Artist - 品味LP - 女聲篇 A2HD
DYEAR=2008
DGENRE=Pop
TTITLE0=小玩意
TTITLE1=陪我看日出
TTITLE2=飄洋過海來看你
TTITLE3=音樂女孩
TTITLE4=我可以抱你嗎
TTITLE5=雙星情歌
TTITLE6=十五的月亮
TTITLE7=遇見
TTITLE8=月亮代表我的心
TTITLE9=曖昧
TTITLE10=月亮河
TTITLE11=最愛是誰
TTITLE12=舊夢不須記
TTITLE13=雪絨花
TTITLE14=到留聲湖去
TTITLE15=三百六十五婺
EXTD=
EXTT0=
EXTT1=
EXTT2=
EXTT3=
EXTT4=
EXTT5=
EXTT6=
EXTT7=
EXTT8=
EXTT9=
EXTT10=
EXTT11=
EXTT12=
EXTT13=
EXTT14=
EXTT15=
PLAYORDER=
